# xmcd
#
# Track frame offsets:
#	150
#	17180
#	37135
#	57255
#	77650
#	92332
#	110487
#	130130
#	149902
#	165807
#
# Disc length: 2491 seconds
#
# Revision: 1
# Processed by: cddbd v1.5.2PL0 Copyright (c) Steve Scherf et al.
# Submitted via: audiograbber 1.82.01
#
DISCID=8009b90a
DTITLE=Suga T - It's All Good
DYEAR=1994
DGENRE=Rap
TTITLE0=Rockin' And Clockin'
TTITLE1=Billy Bad Ass
TTITLE2=Livin' For The Weekend
TTITLE3=I Ain't To Be Fucked With
TTITLE4=Check Ya Self
TTITLE5=It's All Good
TTITLE6=The Don't Knows
TTITLE7=Ms. Thang
TTITLE8=Back Stabbers
TTITLE9=Dap Do
EXTD=
EXTT0=
EXTT1=
EXTT2=
EXTT3=
EXTT4=
EXTT5=
EXTT6=
EXTT7=
EXTT8=
EXTT9=
PLAYORDER=
